<?xml version="1.0" encoding="UTF-8" standalone="no"?>
<svg
   xmlns:dc="http://purl.org/dc/elements/1.1/"
   xmlns:cc="http://creativecommons.org/ns#"
   xmlns:rdf="http://www.w3.org/1999/02/22-rdf-syntax-ns#"
   xmlns:svg="http://www.w3.org/2000/svg"
   xmlns="http://www.w3.org/2000/svg"
   xmlns:sodipodi="http://sodipodi.sourceforge.net/DTD/sodipodi-0.dtd"
   xmlns:inkscape="http://www.inkscape.org/namespaces/inkscape"
   version="1.1"
   id="svg2"
   xml:space="preserve"
   width="709.33331"
   height="809.33331"
   viewBox="0 0 709.33331 809.33331"
   sodipodi:docname="unicorn.eps"><metadata
     id="metadata8"><rdf:RDF><cc:Work
         rdf:about=""><dc:format>image/svg+xml</dc:format><dc:type
           rdf:resource="http://purl.org/dc/dcmitype/StillImage" /></cc:Work></rdf:RDF></metadata><defs
     id="defs6" /><sodipodi:namedview
     pagecolor="#ffffff"
     bordercolor="#666666"
     borderopacity="1"
     objecttolerance="10"
     gridtolerance="10"
     guidetolerance="10"
     inkscape:pageopacity="0"
     inkscape:pageshadow="2"
     inkscape:window-width="640"
     inkscape:window-height="480"
     id="namedview4" /><g
     id="g10"
     inkscape:groupmode="layer"
     inkscape:label="ink_ext_XXXXXX"
     transform="matrix(1.3333333,0,0,-1.3333333,0,809.33333)"><g
       id="g12"
       transform="scale(0.1)"><path
         d="M 5.64453,6063.36 H 5318.54 V 4.02344 H 5.64453 V 6063.36"
         style="fill:#0a1024;fill-opacity:1;fill-rule:evenodd;stroke:none"
         id="path14" /><path
         d="M 5.64453,6063.36 H 5318.54 V 4.02344 H 5.64453 Z"
         style="fill:none;stroke:#231f20;stroke-width:2.16;stroke-linecap:butt;stroke-linejoin:miter;stroke-miterlimit:2.61313;stroke-dasharray:none;stroke-opacity:1"
         id="path16" /><path
         d="m 3354.58,4714.97 130.18,-6.53 -20.01,178.32 -105.13,-51.73 z m 106.19,202.98 -22.86,208.08 -67.47,-33.21 -8.66,-224.98 z m -25.57,239.48 -18.29,144.86 -38,-17.41 -7.61,-159.98 z m -20.38,174.48 -23.46,209.13 c -0.19,1.2 -2.07,0.73 -2.13,-0.34 l -9.46,-225.75 35.05,16.96"
         style="fill:#ffffff;fill-opacity:1;fill-rule:evenodd;stroke:none"
         id="path18" /><path
         d="m 2912.24,4438.87 24.22,-369.91 82.98,-301.77 174.24,-620.76 29.64,62.27 398.93,-87.6 19.22,250.63 -155.96,562.77 -232.52,725.97 -340.75,-221.6"
         style="fill:#ffffff;fill-opacity:1;fill-rule:evenodd;stroke:none"
         id="path20" /><path
         d="m 2226.45,2340 -636.77,0.86 62.77,-1395.536 z"
         style="fill:#ffffff;fill-opacity:1;fill-rule:evenodd;stroke:none"
         id="path22" /><path
         d="m 1420.65,2951.21 427.9,-158.97 864.48,-312.57 c 84.85,-30.18 379.93,-143.61 443.47,-156.47 l 2.26,154.94 -424.85,131.93 -34.69,77.72 -306.83,133.05 13.29,272.87 -709.84,-0.05 -275.19,-142.45"
         style="fill:#ffffff;fill-opacity:1;fill-rule:evenodd;stroke:none"
         id="path24" /><path
         d="M 3443.45,2217.01 4753.42,1728.83 3655.54,2736.07 3644.3,2270.24 3443.45,2217.01"
         style="fill:#ffffff;fill-opacity:1;fill-rule:evenodd;stroke:none"
         id="path26" /><path
         d="m 1483.63,2379.51 786.58,-0.28 59.02,195.01 -937.82,340.55 92.22,-535.28"
         style="fill:#ffffff;fill-opacity:1;fill-rule:evenodd;stroke:none"
         id="path28" /><path
         d="m 479.777,2135.48 924.523,484.59 -59.87,338.16 198.31,110.27 138.19,64.9 706.87,3.55 c 1.98,0.49 5.36,2.03 6.88,2.48 l 20.28,134.39 -891.67,-104.23 C 1440.38,3097.25 495.199,2169.8 479.777,2135.48"
         style="fill:#ffffff;fill-opacity:1;fill-rule:evenodd;stroke:none"
         id="path30" /><path
         d="m 2776.22,2615.63 599.24,-159.87 c -66.13,99.12 -338.92,426.14 -435.55,548.18 -23.85,30.13 -118.87,161.39 -152.88,176.9 l -10.81,-565.21"
         style="fill:#ffffff;fill-opacity:1;fill-rule:evenodd;stroke:none"
         id="path32" /><path
         d="m 2468.2,3338.94 270.14,-634.93 21.63,794.96 z"
         style="fill:#ffffff;fill-opacity:1;fill-rule:evenodd;stroke:none"
         id="path34" /><path
         d="m 3390.61,4361.04 413.13,138.18 -27.34,164.51 -481.23,12.49 95.44,-315.18"
         style="fill:#ffffff;fill-opacity:1;fill-rule:evenodd;stroke:none"
         id="path36" /><path
         d="m 2793.37,3222.23 212.35,-4.73 129.28,-0.24 -116.58,414.82 -213.75,-103.96 -11.3,-305.89"
         style="fill:#ffffff;fill-opacity:1;fill-rule:evenodd;stroke:none"
         id="path38" /><path
         d="m 3436.27,2497.23 138.47,596.43 -315.63,70 z"
         style="fill:#ffffff;fill-opacity:1;fill-rule:evenodd;stroke:none"
         id="path40" /><path
         d="m 3622.31,3095.73 c -6.34,-9.01 -6.2,-8.04 -12.63,-24.47 l -71.7,-324.75 c -22.69,-106.32 -46.85,-250.96 -78.5,-349.47 l -92.02,21.79 -138.91,-222.42 376.35,105.22 17.41,794.1"
         style="fill:#ffffff;fill-opacity:1;fill-rule:evenodd;stroke:none"
         id="path42" /><path
         d="m 2432.01,2840.57 241.6,-103.52 -221.87,515.24 z"
         style="fill:#ffffff;fill-opacity:1;fill-rule:evenodd;stroke:none"
         id="path44" /><path
         d="m 3227.66,2708.43 -123.68,219.36 72.19,172.85 -31.98,77.72 -294.86,4.27 c 14.49,-31.4 11.13,-22.37 32.33,-48.56 l 198.48,-247.16 138.56,-174.03 c 1.7,-2.38 3.38,-4.77 5.07,-7.15 4.2,-4.65 7.18,-4.24 3.89,2.7"
         style="fill:#ffffff;fill-opacity:1;fill-rule:evenodd;stroke:none"
         id="path46" /><path
         d="m 3393.93,2498.33 -165.55,622.08 -83.39,-193.77 65.56,-126.3 183.38,-302.01"
         style="fill:#ffffff;fill-opacity:1;fill-rule:evenodd;stroke:none"
         id="path48" /><path
         d="m 3707.99,2742.11 35.76,575.07 -75.11,45.19 -15,-500.47 -0.8,-76.56 55.15,-43.23"
         style="fill:#ffffff;fill-opacity:1;fill-rule:evenodd;stroke:none"
         id="path50" /><path
         d="m 3190.17,2224.63 138.75,205.03 -130.95,32.65 z"
         style="fill:#ffffff;fill-opacity:1;fill-rule:evenodd;stroke:none"
         id="path52" /></g></g></svg>
